<?xml version="1.0" encoding="utf-8"?>
<!-- Generator: Adobe Illustrator 24.3.0, SVG Export Plug-In . SVG Version: 6.00 Build 0)  -->
<svg version="1.0" id="Layer_1" xmlns="http://www.w3.org/2000/svg" xmlns:xlink="http://www.w3.org/1999/xlink" x="0px" y="0px"
	 viewBox="0 0 724 542" style="enable-background:new 0 0 724 542;" xml:space="preserve">
<style type="text/css">
	.st0{fill:#1A1A1A;}
	.st1{fill:#FFFFFF;}
	.st2{fill:none;}
</style>
<g id="g1102" transform="matrix(1.103012,0,0,1.103012,-21.006341,-27.445284)">
	<path id="path1020" class="st0" d="M119.18,189v2.8c0,0,0,4.9,0,9.1c-4.2-4.7-10.7-11.9-10.7-11.9h-29.4v146.3l17,13.4l17.7-2.2
		c0,0,0.1-7.7,0.1-13c5.8,4.8,13.8,11.3,13.8,11.3l29-3V204.1l-15.7-15L119.18,189"/>
	<path id="path1022" class="st0" d="M297.68,189h-50.4v19.5c0,0,13.3,10.5,15.1,11.9v100.4l16.7,13.4l20.2-0.5V220.4
		c3.6,0,14.9-0.1,14.9-0.1v-14.2l-15.3-17.1H297.68"/>
	<polygon id="polygon1024" class="st0" points="498.38,339.2 518.38,340.8 518.38,204.4 502.38,189 501.28,189 481.48,189 
		481.48,323.5 	"/>
	<path id="path1026" class="st0" d="M599.88,271.2c0.2-1,12-65.7,12-65.7l-16.1-16.5h-21c0,0-1.1,6.8-1.8,11
		c-4.2-4.5-10.2-11-10.2-11h-21.6c0,0,12.3,64.6,12.5,65.5c-0.2,0.9-11.8,73.5-11.8,73.5l22.9,17.4l13.7,1.6v-12.2
		c5.8,4.5,18.9,14.7,18.9,14.7l18.1,2.5C615.38,352.1,599.98,272.2,599.88,271.2"/>
	<path id="path1028" class="st0" d="M446.88,300.4V204l-15.8-15h-21.2v131.2l16.8,14.7l38.3,1.9l-0.8-17
		C464.28,319.8,450.78,304.7,446.88,300.4"/>
	<path id="path1030" class="st0" d="M216.88,218.1h16.5V204l-15.7-15.1h-1.1h-36.6v136.5l16.6,13.1l36.9-2.3v-15.1
		c0,0-15.2-16.8-16.5-18.2v-24.4h16.7v-15.2c0,0-15.2-15.2-16.7-16.7v-28.5"/>
	<path id="path1032" class="st0" d="M370.68,218.1h16.4V204l-15.7-15h-1.1h-36.7v130.3l16.8,14l20.2,0.1v-54.9c3.8,0,16.7,0,16.7,0
		v-15.2c0,0-15.2-15.2-16.7-16.7L370.68,218.1"/>
	<path id="path1034" class="st1" d="M485.78,321c0,0,5.1,0.3,13.9,0.9v-129h-13.9V321"/>
	<path id="path1036" class="st1" d="M251.68,205.8h15.1V318c0,0,3.2-0.3,13.9-0.5l0.1-111.7h15.3v-12.9h-44.4V205.8"/>
	<path id="path1038" class="st1" d="M124.08,303.8l-1,0.1l-16.9-111h-22.6v139.3c0,0,4.5-0.6,14-1.7l-1-105.8l1-0.1l16.1,104.3
		c0,0,5.5-0.7,24.2-2.5V192.9h-14.3L124.08,303.8"/>
	<polygon id="polygon1040" class="st1" points="569.88,268.5 577.28,329.5 593.68,331.3 581.98,256.2 593.88,192.9 578.18,192.9 
		570.38,242.7 569.38,242.7 561.28,192.9 545.88,192.9 557.88,254.5 546.28,326.4 561.18,327.8 568.88,268.5 	"/>
	<path id="path1042" class="st1" d="M428.28,192.9h-14v124.6c0,0,9.5,0.3,32.3,1.3v-12.6c0,0-2.6-0.3-18.3-0.8V192.9"/>
	<path id="path1044" class="st1" d="M184.28,322.5c0,0,8.2-0.6,32.1-2.1v-12.7l-18,1.2v-44.6h18v-13h-18.1v-45.5h18.1v-12.9h-32.1
		L184.28,322.5"/>
	<polyline id="polyline1046" class="st1" points="337.98,316.5 352.08,316.5 352.08,264.3 370.08,264.3 370.08,251.3 352.08,251.3 
		352.08,205.8 370.18,205.8 370.18,192.9 337.98,192.9 337.98,316.5 	"/>
</g>
<rect x="48.4" y="164.7" class="st2" width="627.3" height="212.6"/>
</svg>
